<svg version="1.0" xmlns="http://www.w3.org/2000/svg"
 width="100.000000pt" height="100.000000pt" viewBox="0 0 100.000000 100.000000"
 preserveAspectRatio="xMidYMid meet">
<g transform="translate(0.000000,100.000000) scale(0.100000,-0.100000)"
fill="#14e956" stroke="SVG">
<path d="M479 978 c-7 -13 -32 -45 -56 -72 -82 -92 -125 -188 -143 -320 -21
-149 29 -300 134 -408 50 -51 56 -62 62 -112 5 -43 11 -55 27 -60 32 -8 37 1
37 60 0 53 2 57 50 106 185 188 179 500 -14 716 -23 27 -48 63 -55 80 -16 38
-26 40 -42 10z m117 -177 c79 -116 111 -278 80 -401 -21 -81 -54 -139 -120
-210 l-51 -55 -58 63 c-79 86 -127 186 -134 284 -10 139 36 278 129 389 l50
60 34 -38 c18 -21 50 -62 70 -92z m-83 -727 l-7 -39 -6 35 c-3 19 -1 38 4 42
15 10 16 6 9 -38z"/>
</g>
</svg>
