<svg width="1310" height="1577" viewBox="0 0 1300 1577" fill="none" xmlns="http://www.w3.org/2000/svg">
  <path d="m518.477 1576.51-201.974-557.92L990.27 774.155z" fill="#1a687d"/>
  <path d="m981.32 790.234-91.9 154.556-370.727 630.92 36.537-449.9z" fill="#008d9f"/>
  <path d="M145.13 202.72 358.003 853.5l265.552-115.842" stroke="#00bcd4" stroke-width="178.8"/>
  <mask id="a" style="mask-type:luminance" maskUnits="userSpaceOnUse" x="770" y="0" width="540" height="749">
    <path d="M770.98 17.12c104.79-30 218.41-20.27 315.85 27.053s170.72 128.362 203.73 225.288c33 96.926 23.03 201.801-27.74 291.552-50.76 89.751-138.15 157.027-242.95 187.029L895.421 382.581z" fill="#fff"/>
  </mask>
  <g mask="url(#a)">
    <path d="M770.98 17.12c104.79-30 218.41-20.27 315.85 27.053s170.72 128.362 203.73 225.288c33 96.926 23.03 201.801-27.74 291.552-50.76 89.751-138.15 157.027-242.95 187.029L895.421 382.581z" fill="#00bcd4" stroke="#00bcd4" stroke-width="100"/>
  </g>
  <path d="M815.84 97.177 192.86 276.629m803.55 383.976L380.87 853.171" stroke="#00bcd4" stroke-width="178.8"/>
  <path d="M263.62 322.134 97.832 346.707.674 238.151l181.858-52.217zm114.288 459.631L991.43 598.621 857.65 150.465 244.128 333.609z" fill="#00bcd4"/>
  <path d="m1098.5 713.578-70.56-157.688L787 13.004l325.91 268.439z" fill="#00bcd4"/>
  <path d="m0 238.004 215.858 57.662L304 975 97.136 346.121z" fill="#008d9f"/>
  <path d="m408.049 938.15-4.86-15.13L302.997 975z" fill="#00bcd4"/>
</svg>
